<?xml version="1.0" standalone="no"?>
<!DOCTYPE svg PUBLIC "-//W3C//DTD SVG 20010904//EN"
 "http://www.w3.org/TR/2001/REC-SVG-20010904/DTD/svg10.dtd">
<svg version="1.0" xmlns="http://www.w3.org/2000/svg"
 width="300.000000pt" height="300.000000pt" viewBox="0 0 300.000000 300.000000"
 preserveAspectRatio="xMidYMid meet">
<metadata>
Created by potrace 1.10, written by Peter Selinger 2001-2011
</metadata>
<g transform="translate(0.000000,300.000000) scale(0.100000,-0.100000)"
fill="#000000" stroke="none">
<path d="M616 2759 c-175 -42 -338 -209 -376 -385 -7 -33 -10 -334 -8 -904 l3
-855 28 -65 c53 -127 159 -233 288 -288 l64 -27 885 0 885 0 65 28 c127 53
233 159 288 288 l27 64 0 885 0 885 -27 64 c-55 129 -161 235 -288 288 l-65
28 -865 2 c-501 1 -881 -3 -904 -8z m1767 -15 c86 -22 147 -55 214 -118 71
-66 120 -145 144 -234 18 -62 19 -119 19 -892 0 -922 2 -894 -71 -1016 -41
-68 -133 -156 -198 -189 -111 -56 -99 -55 -991 -55 -892 0 -880 -1 -991 55
-65 33 -157 121 -198 189 -73 122 -71 94 -71 1016 0 922 -2 894 71 1016 39 65
132 155 192 186 112 58 89 57 991 57 722 1 836 -1 889 -15z"/>
<path d="M903 1957 c-79 -84 -108 -161 -108 -282 0 -289 181 -463 614 -590 29
-9 55 -14 58 -12 10 11 -133 255 -198 338 -16 20 -29 40 -29 44 0 31 144 -144
186 -227 30 -60 47 -71 40 -26 -3 18 -13 74 -21 124 -27 162 -90 290 -194 395
-53 53 -88 76 -174 118 -109 54 -145 88 -131 124 11 29 -13 26 -43 -6z m36
-68 c14 -19 57 -47 118 -76 130 -63 214 -141 281 -263 18 -31 82 -210 82 -227
0 -23 -15 -14 -35 20 -52 89 -183 195 -280 226 -22 7 -46 15 -52 17 -7 3 -13
1 -13 -5 0 -6 24 -25 54 -41 88 -50 162 -140 270 -328 26 -46 45 -86 42 -89
-8 -8 -133 36 -225 80 -150 70 -256 158 -301 247 -47 93 -66 206 -50 290 10
56 65 180 79 180 4 0 17 -14 30 -31z"/>
<path d="M2023 1767 c3 -61 -30 -100 -154 -182 -57 -37 -123 -89 -149 -115
-64 -66 -124 -170 -154 -265 -53 -175 -62 -318 -12 -205 31 71 189 271 202
257 3 -3 -19 -43 -49 -89 -46 -70 -197 -343 -197 -356 0 -6 66 7 125 25 192
57 376 156 457 245 127 140 158 382 71 565 -23 50 -116 163 -133 163 -5 0 -8
-20 -7 -43z m64 -55 c81 -110 113 -280 78 -415 -40 -153 -112 -232 -303 -334
-69 -37 -282 -116 -290 -108 -2 2 7 23 20 47 14 24 45 79 68 123 74 137 140
238 193 292 28 29 48 55 45 59 -8 8 -121 -58 -175 -102 -23 -19 -66 -67 -95
-106 -65 -88 -73 -72 -24 49 66 161 151 262 292 346 80 48 143 110 151 147 7
37 14 37 40 2z"/>
</g>
</svg>
